<?xml version="1.0" encoding="UTF-8" standalone="no"?>
<svg
   viewBox="0 0 32 32"
   version="1.1"
   id="svg55"
	 width='100'
	 height='100'
   sodipodi:docname="file_type_ejs.svg"
   inkscape:version="1.1.2 (b8e25be8, 2022-02-05)"
   xmlns:inkscape="http://www.inkscape.org/namespaces/inkscape"
   xmlns:sodipodi="http://sodipodi.sourceforge.net/DTD/sodipodi-0.dtd"
   xmlns="http://www.w3.org/2000/svg"
   xmlns:svg="http://www.w3.org/2000/svg">
  <defs
     id="defs59" />
  <sodipodi:namedview
     id="namedview57"
     pagecolor="#ffffff"
     bordercolor="#666666"
     borderopacity="1.0"
     inkscape:pageshadow="2"
     inkscape:pageopacity="0.0"
     inkscape:pagecheckerboard="0"
     showgrid="false"
     inkscape:zoom="37.59375"
     inkscape:cx="10.759767"
     inkscape:cy="16"
     inkscape:window-width="1430"
     inkscape:window-height="1387"
     inkscape:window-x="1130"
     inkscape:window-y="25"
     inkscape:window-maximized="0"
     inkscape:current-layer="svg55" />
  <title
     id="title51">file_type_ejs</title>
  <path
     d="M2,17.672V14.328l11.86-6.2V11.2L5.1,15.939l8.762,4.835v3.1Zm27.814-8.88L19.465,23.229H15.912L26.281,8.791ZM26.947,21.5a.794.794,0,0,0,.619-.278,1.061,1.061,0,0,0,.248-.732,1.141,1.141,0,0,0-.248-.753.768.768,0,0,0-1.217,0,1.141,1.141,0,0,0-.248.753,1.09,1.09,0,0,0,.237.732A.763.763,0,0,0,26.947,21.5Zm2.186,1.042a3.237,3.237,0,0,1-4.352-.01,2.864,2.864,0,0,1,0-4.1,3.223,3.223,0,0,1,4.352,0A2.773,2.773,0,0,1,30,20.486,2.74,2.74,0,0,1,29.134,22.538ZM18.821,13.061a.794.794,0,0,0,.619-.278,1.061,1.061,0,0,0,.248-.732,1.141,1.141,0,0,0-.248-.753.769.769,0,0,0-1.217,0,1.141,1.141,0,0,0-.248.753,1.09,1.09,0,0,0,.237.732A.763.763,0,0,0,18.821,13.061ZM21.007,14.1a3.237,3.237,0,0,1-4.352-.01,2.864,2.864,0,0,1,0-4.1,3.223,3.223,0,0,1,4.352,0,2.773,2.773,0,0,1,.866,2.063A2.74,2.74,0,0,1,21.007,14.1Z"
     style="fill:#007bca;fill-opacity:1"
     id="path53" />
</svg>
